<svg width="1024" height="1024" viewBox="0 0 1024 1024" fill="none" xmlns="http://www.w3.org/2000/svg">
<g clip-path="url(#clip0_2459_19421)">
<path d="M195.982 800.211C184.515 787.494 176.758 762.181 175.641 745.284C175.106 736.885 175.63 728.451 177.2 720.184C179.9 706.415 182.329 704.767 181.836 690.026C180.908 662.424 179.455 634.56 178.855 606.974C177.149 539.646 178.443 472.274 182.736 405.06C188.424 321.599 198.18 230.08 262.293 169.124C266.726 164.91 282.793 150.817 288.6 150.434C289.062 150.665 289.612 151.003 289.836 151.499C336.164 254.15 320.732 370.278 304.099 477.75C298.794 512.028 295.281 544.596 289.046 577.129C296.002 571.018 303.859 562.936 310.7 556.367L356.309 512.579C404.661 465.959 453.346 419.685 502.362 373.763C521.106 356.047 540.229 338.734 559.713 321.835C548.994 306.444 547.294 289.687 554.906 272.32C558.321 264.524 565.547 256.152 575.245 259.325C581.62 261.409 579.842 271.441 582.99 276.891C587.507 284.72 598.554 285.863 606.042 281.726C619.527 273.314 611.179 262.174 605.943 252.521C599.063 239.846 591.197 229.353 583.632 217.478C583.445 217.681 583.268 217.884 583.079 218.084C577.399 224.146 569.823 242.516 561.93 244.117C558.087 244.896 554.398 243.265 551.367 241.007C535.324 229.046 524.519 199.737 522.116 180.535C519.589 160.381 524.677 140.292 537.231 124.201C539.621 121.137 547.896 111.102 551.816 111.323C560.014 111.782 599.522 149.589 607.029 157.265C647.721 198.889 703.114 270.624 725.867 323.761C729.141 331.411 729.39 339.706 732.201 347.383C734.063 352.476 736.75 357.309 738.801 362.339C744.749 376.65 747.682 392.031 747.404 407.527C746.665 453.685 721.087 476.575 690.878 505.841C702.271 506.455 723.01 505.444 734.921 505.235L830.928 503.294L861.898 503.034C865.031 503.03 875.441 502.621 877.643 503.308C883.444 505.112 897.693 519.62 901.323 524.165C901.319 529.686 898.798 563.043 896.421 566.335C888.827 576.862 713.684 574.477 692.059 573.999C683.314 573.805 628.641 571.826 623.803 573.607C620.447 574.839 618.559 578.311 617.003 581.298C617.67 594.989 622.679 591.229 632.552 587.507C641.853 583.996 653.119 580.204 663.026 583.499C669.01 585.557 673.893 589.982 676.533 595.733C682.618 609.066 674.064 619.566 670.003 630.784L669.783 631.4C686.973 626.128 711.053 622.185 718.948 644.755C723.273 657.121 715.606 669.098 709.977 679.828C721.559 676.385 737.322 669.92 748.556 676.17C760.536 682.838 763.483 698.26 758.826 710.319C756.916 715.266 751.344 723.537 752.7 728.081C758.376 733.899 779.159 717.955 784.571 720.611C796.516 726.473 780.024 749.261 774.939 753.993C757.107 770.594 724.614 771.114 713.574 746.859C708.424 735.554 713.165 723.815 717.443 713.257C705.325 717.977 696.583 720.974 683.338 716.094C676.94 713.738 672.171 708.965 669.637 702.665C664.433 689.701 668.16 679.814 673.156 667.84C659.747 671.674 648.495 675.387 635.051 668.161C629.441 665.145 625.284 659.37 623.796 653.232C620.645 640.216 625.608 632.823 631.767 622.28C627.537 623.757 623.71 625.217 619.248 625.81C612.266 626.783 605.191 624.835 599.691 620.425C593.375 615.457 590.842 608.94 589.801 601.323C580.13 610.046 565.69 625.902 556.001 635.768L539.818 652.244C536.229 655.876 531.325 660.401 528.508 664.51C525.638 670.2 522.642 678.395 520.204 684.489L505.263 722.556C500.136 735.666 493.968 751.854 488.451 764.547C471.486 803.559 420.197 912.71 378.861 925.231C377.741 924.959 376.604 924.64 375.538 924.188C371.978 922.689 369.412 918.914 368.087 915.421C358.236 889.468 376.802 825.516 388.021 800.108C383.392 803.503 377.785 809.459 373.595 813.636C341.904 845.204 294.467 864.98 251.588 841.774C253.802 850.68 253.681 860.006 251.236 868.848C247.954 881.152 239.99 892.672 228.823 899.043C218.356 904.891 205.977 906.288 194.471 902.909C160.826 893.339 153.115 847.354 171.735 821.348C179.128 811.026 184.806 806.239 195.982 800.211ZM220.258 869.467C225.048 862.98 228.008 855.946 226.731 847.633L226.186 844.253C217.895 846.987 212.248 848.437 203.61 844.617C198.511 842.363 196.207 836.842 194.198 835.869C180.52 860.073 201.42 891.264 220.258 869.467Z" fill="#1D1C1D"/>
<path d="M495.273 700.425C497.019 699.872 500.138 695.718 502.365 694.047L503.031 694.084C503.944 693.209 503.918 693.223 505.041 692.639C493.876 716.945 483.373 744.662 472.883 768.295C456.081 806.155 415.408 886.628 381.365 910.184C380.359 906.396 381.003 900.347 381.502 896.444C385.619 864.331 396.589 832.812 408.951 803.024C411.62 796.593 416.474 788.404 420.017 782.308C430.468 767.455 440.333 754.699 453.234 741.803C461.755 733.286 470.608 725.229 479.383 716.982C484.809 711.882 489.959 705.341 495.273 700.425Z" fill="#9E9FA3"/>
<path d="M392.509 868.667C397.357 866.458 403.081 868.567 405.341 873.392C407.6 878.218 405.554 883.962 400.753 886.272C397.602 887.791 393.878 887.498 391.003 885.508C388.126 883.513 386.544 880.134 386.855 876.649C387.166 873.163 389.326 870.119 392.509 868.667Z" fill="#1D1C1D"/>
<path d="M394.974 873.132C397.232 872.15 399.864 873.117 400.948 875.326C402.034 877.54 401.187 880.213 399.028 881.398C397.541 882.214 395.725 882.143 394.302 881.22C392.88 880.296 392.08 878.666 392.22 876.974C392.361 875.287 393.418 873.807 394.974 873.132Z" fill="#C2C3C4"/>
<path d="M416.95 769.517C419.622 768.18 420.132 767.322 422.113 765.213L426.731 771.019C424.596 774.038 420.207 779.052 420.018 782.308C416.476 788.404 411.621 796.593 408.952 803.024C396.59 832.812 385.62 864.331 381.503 896.443C381.004 900.347 380.361 906.396 381.366 910.184L379.445 911.543L378.493 911.317C373.682 903.997 380.351 866.585 383.115 856.842C388.6 837.509 403.161 782.179 416.95 769.517Z" fill="#FDFDFD"/>
<path d="M494.731 694.866C495.309 695.912 494.739 696.616 495.066 698.193L495.631 698.479C497.012 697.489 497.496 696.943 498.655 695.746L499.172 695.884C497.904 697.323 496.432 698.919 495.273 700.425C489.959 705.341 484.809 711.882 479.382 716.982C470.608 725.229 461.754 733.286 453.234 741.803C440.332 754.699 430.467 767.455 420.016 782.308C420.205 779.052 424.594 774.038 426.729 771.019L422.111 765.213C420.13 767.322 419.62 768.18 416.948 769.517C422.047 762.75 443.052 743.102 450.251 736.526C464.602 723.428 480.267 707.425 494.731 694.866Z" fill="#CDCCCE"/>
<path d="M494.732 694.866C498.77 690.429 523.931 666.292 528.508 664.51C521.82 670.695 517.539 676.494 511.991 683.693C509.626 686.753 507.119 689.327 505.041 692.639C503.917 693.223 503.944 693.209 503.031 694.084L502.364 694.047C500.138 695.718 497.019 699.872 495.273 700.425C496.432 698.919 497.904 697.323 499.173 695.884L498.655 695.746C497.497 696.943 497.013 697.489 495.631 698.479L495.066 698.193C494.739 696.616 495.309 695.912 494.732 694.866Z" fill="#B3B3B6"/>
<path d="M210.461 794.106C209.28 794.754 208.2 794.934 207.196 793.691C186.763 768.389 182.167 725.343 196.507 696.258C206.379 676.231 226.974 656.868 242.828 641.18L278.739 605.781C325.362 559.924 373.833 514.084 421.199 468.851C457.213 434.446 493.451 400.279 529.913 366.354C540.647 356.242 551.497 346.248 562.455 336.376C581.776 318.874 599.971 302.647 627.608 300.93C652.293 299.398 677.102 309.598 695.463 325.747C712.184 340.453 728.628 367.077 730.026 389.709C730.751 392.524 730.708 397.714 730.629 400.675C730.363 417.24 725.831 433.462 717.476 447.769C704.783 469.42 673.857 495.57 655.044 514.234C612.055 556.952 568.789 599.388 525.252 641.543L424.225 741.051L387.251 777.778C378.574 786.362 370.097 795.001 360.797 802.937C345.816 815.725 327.52 827.318 308.373 832.336C289.653 837.244 268.11 835.287 251.238 825.558C248.276 823.838 244.125 821.19 242.12 818.447L242.366 817.636L243.379 817.304C250.564 814.553 256.845 806.458 256.27 798.573C255.37 786.204 241.821 779.457 230.638 780.584C221.484 781.508 215.696 787.301 210.461 794.106Z" fill="url(#knifeRainbow)"/>
<path d="M721.167 370.867C724.199 376.511 727.56 385.513 730.024 389.71C730.748 392.524 730.705 397.714 730.627 400.675C730.361 417.24 725.829 433.463 717.473 447.77C704.78 469.42 673.855 495.57 655.042 514.234C612.053 556.952 568.786 599.388 525.249 641.543L424.223 741.051L387.249 777.778C378.572 786.362 370.094 795.002 360.795 802.938C345.814 815.725 327.518 827.318 308.37 832.337C289.65 837.244 268.108 835.287 251.236 825.558C248.273 823.838 244.123 821.191 242.118 818.447L242.364 817.636L243.376 817.304L243.445 818.145C243.72 818.169 243.994 818.193 244.268 818.216C268.969 823.247 286.652 822.112 310.553 811.933C338.361 800.095 358.215 777.917 379.76 757.384C399.652 738.428 418.977 718.688 438.492 699.102L549.536 589.695L643.667 497.505L669.127 472.914C680.071 462.486 688.251 455.44 697.51 442.822C708.948 427.572 716.951 410.008 719.186 390.966C719.741 386.213 719.239 374.785 721.167 370.867Z" fill="url(#knifeRainbowDark)"/>
<path d="M210.461 794.106C209.28 794.754 208.2 794.934 207.196 793.691C186.763 768.389 182.167 725.343 196.507 696.258C206.379 676.231 226.974 656.868 242.828 641.18L278.739 605.781C325.362 559.924 373.833 514.084 421.199 468.851C457.213 434.446 493.451 400.279 529.913 366.354C540.647 356.242 551.497 346.248 562.455 336.376C581.776 318.874 599.971 302.647 627.608 300.93C652.293 299.398 677.102 309.598 695.463 325.747C712.184 340.453 728.628 367.077 730.026 389.709C727.563 385.513 724.201 376.511 721.17 370.867C710.312 345.95 688.394 323.106 662.848 313.089C644.998 305.917 625.022 306.154 607.342 313.745C600.666 316.665 593.698 321.197 588.226 326.02C562.726 348.489 537.932 372.097 513.238 395.436C470.329 435.879 427.635 476.548 385.159 517.442L286.516 612.082C266.764 631.004 246.617 649.605 227.931 669.334C197.805 701.141 186.383 741.419 205.162 782.282C206.369 784.908 209.914 791.662 210.461 794.106Z" fill="#FDFDFD"/>
<path d="M272.19 175.941C275.603 172.515 279.341 169.431 283.352 166.73C315.144 254.783 308.36 330.097 295.872 420.708C291.512 453.017 286.767 485.273 281.639 517.469L272.433 574.734C271.455 580.749 269.394 596.264 267.552 601.192L266.85 601.332C254.778 603.719 220.038 603.952 211.802 612.548C227.097 614.725 239.261 613.883 253.386 615.254L249.448 619.171C238.922 629.683 229.942 638.578 220.079 649.761C215.164 655.335 208.422 664.807 204.259 669.305C201.694 673.042 199.027 676.704 196.266 680.299C190.908 600.831 190.166 521.117 194.045 441.562C197.585 359.964 200.371 267.295 251.011 198.743C256.238 191.666 265.227 181.36 272.19 175.941Z" fill="#C2C3C4"/>
<path d="M272.19 175.942C273.666 175.315 276.605 173.532 277.471 173.564C276.757 174.245 269.331 183.629 268.607 184.696C262.991 192.973 246.358 215.024 244.104 223.745L235.692 240.733C232.729 245.643 229.623 254.728 227.524 260.357C207.862 313.114 206.285 370.219 202.747 425.785C201.129 451.196 199.939 476.619 199.419 502.088C198.699 538.4 199.091 574.725 200.595 611.011C201.202 629.898 201.495 648.733 202.828 667.608C202.905 668.707 203.476 668.863 204.258 669.305C201.693 673.042 199.027 676.704 196.265 680.299C190.907 600.832 190.165 521.117 194.044 441.562C197.584 359.965 200.37 267.296 251.01 198.743C256.237 191.666 265.226 181.36 272.19 175.942Z" fill="#FDFDFD"/>
<path d="M211.803 612.547C227.098 614.725 239.262 613.883 253.387 615.254L249.449 619.171C236.222 619.353 220.736 620.039 207.748 616.798C209.484 615.181 210.389 614.41 211.803 612.547Z" fill="#FDFDFD"/>
<path d="M244.109 223.744C244.356 226.047 237.821 239.784 235.698 240.733L244.109 223.744Z" fill="#797A7E"/>
<path d="M246.621 249.307C252.018 283.312 246.794 335.177 227.851 365.158C226.101 367.928 219.596 375.434 215.982 374.616L215.513 373.879L216.18 372.699C215.065 371.812 214.076 369.55 213.964 368.365C211.822 345.757 223.427 284.521 235.184 267.1C234.518 264.787 235.672 261.802 237.782 260.651C240.583 258.2 243.801 252.648 246.621 249.307Z" fill="#FDFDFD"/>
<path d="M235.182 267.101L236.256 266.631C240.737 288.381 225.117 351.638 216.178 372.7C215.063 371.813 214.074 369.551 213.962 368.366C211.82 345.758 223.425 284.523 235.182 267.101Z" fill="#1D1C1D"/>
<path d="M235.181 267.101C234.515 264.788 235.669 261.803 237.778 260.651C236.958 262.637 235.85 264.568 236.255 266.631L235.181 267.101Z" fill="#797A7E"/>
<path d="M631.918 559.581C639.458 551.703 647.064 543.887 654.724 536.12C658.138 532.652 671.329 518.01 675.274 518.283C693.452 516.694 714.659 516.88 733.143 516.35C766.183 515.24 799.237 514.539 832.296 514.251C831.584 517.089 830.899 519.545 830.531 522.456C829.71 535.804 830.799 546.496 832.973 559.56C813.399 558.962 788.866 560.151 768.8 560.298C729.467 560.486 690.13 560.23 650.801 559.54C648.798 559.792 635.233 559.522 631.918 559.581Z" fill="#9E9FA3"/>
<path d="M650.804 559.541C652.653 557.426 656.431 553.864 658.572 551.645C665.638 552.384 672.698 552.011 679.759 552.264C701.48 553.041 724.403 552.133 746.009 553.505C745.859 550.588 749.323 531.435 750.273 528.341L750.565 527.408C751.255 525.189 751.868 524.926 753.857 523.601C763.75 523.782 774.44 523.517 784.125 523.885C796.443 523.376 819.871 524.746 830.534 522.456C829.714 535.805 830.802 546.496 832.977 559.56C813.402 558.962 788.87 560.151 768.803 560.299C729.471 560.487 690.133 560.23 650.804 559.541Z" fill="#C2C3C4"/>
<path d="M753.856 523.6C763.749 523.781 774.439 523.517 784.124 523.884C781.432 526.626 778.077 550.83 777.962 555.759C768.79 555.324 754.808 554.827 746.008 553.504C745.858 550.588 749.322 531.434 750.272 528.341L750.564 527.407C751.254 525.188 751.867 524.926 753.856 523.6Z" fill="#B5B5B7"/>
<path d="M675.273 518.284C693.451 516.695 714.657 516.882 733.142 516.352C766.182 515.242 799.236 514.541 832.295 514.253C831.582 517.091 830.897 519.547 830.53 522.457C819.866 524.747 796.438 523.377 784.12 523.886C774.436 523.519 763.746 523.783 753.852 523.602C735.62 523.797 716.901 523.232 698.629 523.006C692.364 522.929 684.839 521.962 678.453 521.652C676.099 520.777 675.378 520.855 675.273 518.284Z" fill="#FDFDFD"/>
<path d="M631.918 559.581C639.458 551.703 647.064 543.887 654.724 536.12C658.138 532.652 671.329 518.01 675.274 518.283C675.379 520.853 676.1 520.775 678.455 521.65C675.715 523.623 662.005 546.51 658.569 551.644C656.428 553.864 652.65 557.426 650.801 559.54C648.798 559.792 635.233 559.522 631.918 559.581Z" fill="#797A7E"/>
<path d="M558.808 232.048C533.906 203.103 520.259 155.615 551.664 126.039C552.192 125.542 553.062 126.115 553.674 126.338C555.773 128.025 558.214 129.896 560.234 131.63C582.066 147.045 608.607 177.273 625.745 197.768C629.202 201.903 636.599 210.767 639.275 214.92C642.258 218.195 646.841 224.179 649.397 227.833C649.272 229.542 649.54 228.97 648.677 230.28C635.217 228.129 617.66 222.455 603.962 221.712C602.677 220.826 601.624 220.408 600.216 219.771C598.606 218.337 592.762 209.078 590.384 206.275C581.162 199.622 573.673 210.943 568.318 217.585C565.933 220.543 563.52 224.843 561.397 228.104L558.808 232.048Z" fill="#B5B5B7"/>
<path d="M558.808 232.048C533.906 203.103 520.259 155.615 551.664 126.039C552.192 125.542 553.062 126.115 553.674 126.338C555.773 128.025 558.214 129.896 560.234 131.63C558.418 134.103 556.966 133.523 555.718 135.417C554.424 135.039 554.23 134.884 552.909 134.919C549.145 137.085 547.327 141.207 545.611 145.07C533.079 173.276 547.66 203.616 561.397 228.104L558.808 232.048Z" fill="#FDFDFD"/>
<path d="M553.675 126.338C555.774 128.026 558.215 129.896 560.235 131.63C558.42 134.103 556.968 133.523 555.72 135.417C555.794 132.623 554.499 129.106 553.675 126.338Z" fill="#C2C3C4"/>
<path d="M590.388 206.274C598.462 201.818 633.908 215.983 639.047 215.13L639.279 214.919C642.262 218.194 646.845 224.178 649.4 227.832C649.276 229.541 649.543 228.97 648.68 230.279C635.221 228.129 617.664 222.454 603.966 221.711C602.681 220.825 601.628 220.408 600.219 219.77C598.61 218.336 592.765 209.077 590.388 206.274Z" fill="#9E9FA3"/>
<path d="M600.221 219.77C601.63 220.408 602.683 220.825 603.968 221.711C617.666 222.455 635.223 228.129 648.683 230.28C649.546 228.97 649.278 229.541 649.403 227.832C669.391 253.63 688.636 281.692 704.619 310.124C707.998 316.129 710.887 322.426 714.013 328.554C691.665 307.68 663.633 293.892 632.528 295.004C628.82 295.168 625.127 295.522 621.456 296.068C614.804 297.369 608.168 298.775 601.558 300.28C590.693 304.05 585.831 306.075 575.841 312.209C574.285 313.156 572.51 314.397 570.964 315.417C563.581 304.715 559.579 292.168 564.557 279.508C565.362 277.46 566.324 274.236 568.401 273.274L569.14 273.734L569.561 276.223C571.844 283.541 573.343 286.293 579.548 291.084C579.682 291.102 584.92 293.008 585.657 293.271C600.384 298.507 620.469 292.064 624.526 275.628C625.501 271.568 625.45 267.328 624.372 263.294C621.867 253.539 606.146 229.298 600.221 219.77Z" fill="#C2C3C4"/>
<path d="M600.221 219.77C601.63 220.408 602.683 220.825 603.968 221.711C615.484 234.276 636.257 253.783 634.886 271.264C633.989 282.76 628.994 288.303 621.456 296.068C614.804 297.369 608.168 298.775 601.558 300.28C590.693 304.05 585.831 306.075 575.841 312.209C574.285 313.156 572.51 314.397 570.964 315.417C563.581 304.715 559.579 292.168 564.557 279.508C565.362 277.46 566.324 274.236 568.401 273.274L569.14 273.734L569.561 276.223C571.844 283.541 573.343 286.293 579.548 291.084C579.682 291.102 584.92 293.008 585.657 293.271C600.384 298.507 620.469 292.064 624.526 275.628C625.501 271.568 625.45 267.328 624.372 263.294C621.867 253.539 606.146 229.298 600.221 219.77Z" fill="#FDFDFD"/>
<path d="M570.961 315.417C563.578 304.715 559.576 292.168 564.554 279.508C565.359 277.46 566.32 274.236 568.397 273.274L569.136 273.734L569.558 276.223C571.841 283.541 573.34 286.293 579.545 291.084C576.923 290.825 578.298 290.719 575.758 289.237L575.657 290.391L576.341 290.952C578.44 292.696 579.597 294.453 582.03 295.947C586.989 298.984 598.283 297.295 601.554 300.28C590.689 304.05 585.828 306.075 575.838 312.209C574.282 313.156 572.507 314.397 570.961 315.417Z" fill="#C2C3C4"/>
<path d="M570.961 315.417C563.578 304.715 559.576 292.168 564.554 279.508C565.359 277.46 566.32 274.236 568.397 273.274L569.136 273.734L569.558 276.223C566.285 284.521 571.193 304.543 575.838 312.209C574.282 313.156 572.507 314.397 570.961 315.417Z" fill="#FDFDFD"/>
<path d="M602.665 604.523C600.814 599.371 598.355 592.986 604.845 590.123C607.033 593.641 608.663 600.961 615.152 601.498C629.474 602.692 646.632 584.803 661.312 594.863C664.662 598.377 666.083 602.361 665.45 607.211C665.185 619.031 645.052 640.762 661.764 643.318C660.611 643.642 659.535 643.943 658.366 644.225L658.921 644.158L658.951 645.099C660.582 646.059 662.242 646.998 663.81 648.05L664.655 648.065C670.842 648.164 691.701 642.265 688.724 653.87C683.154 650.165 679.022 652.728 673.258 654.74C666.444 657.113 658.648 660.822 651.289 660.272C648.252 660.247 647.723 660.119 644.792 659.28C620.238 648.045 649.265 621.61 650.784 606.731C644.043 599.754 624.337 620.146 609.647 612.853C605.822 610.652 604.252 608.485 602.665 604.523Z" fill="#FDFDFD"/>
<path d="M661.311 594.862C664.661 598.376 666.082 602.361 665.449 607.21C665.185 619.031 645.051 640.762 661.764 643.317C660.61 643.641 659.534 643.943 658.365 644.224L658.92 644.158L658.95 645.098C660.581 646.058 662.241 646.997 663.809 648.049L664.654 648.064C670.842 648.163 691.7 642.264 688.723 653.869C683.153 650.164 679.021 652.727 673.257 654.739C666.443 657.112 658.648 660.821 651.289 660.271C648.251 660.247 647.722 660.118 644.791 659.28C644.651 654.602 642.953 652.3 642.358 647.477C642.673 643.55 642.846 638.69 644.103 634.929C648.276 622.395 657.654 610.387 660.95 597.643C661.187 596.469 661.199 596.06 661.311 594.862Z" fill="#ABABAE"/>
<path d="M642.358 647.478C644.112 648.309 650.251 656.613 650.623 658.094C648.923 657.398 648.838 657.072 647.821 655.573C647.78 657.011 647.649 657.728 648.165 659.088C649.117 659.283 649.992 659.473 650.931 659.705L651.289 660.272C648.252 660.247 647.722 660.119 644.791 659.28C644.651 654.602 642.953 652.301 642.358 647.478Z" fill="#C2C3C4"/>
<path d="M661.31 594.863C664.66 598.377 666.081 602.362 665.448 607.211C663.631 604.74 663.692 600.903 660.949 597.644C661.186 596.47 661.199 596.061 661.31 594.863Z" fill="#C2C3C4"/>
<path d="M609.647 612.852C611.067 610.446 611.392 607.136 612.511 605.087C620.191 609.001 623.723 609.544 632.41 606.96C637.085 605.568 645.296 601.715 649.868 601.353C650.707 603.719 650.699 604.2 650.784 606.73C644.044 599.753 624.338 620.146 609.647 612.852Z" fill="#B8B7BA"/>
<path d="M610.845 605.356L610.769 603.859C612.85 603.175 623.058 605.028 625.771 605.217C631.889 605.654 644.904 598.758 649.869 601.353C645.297 601.715 637.086 605.567 632.411 606.96C623.723 609.544 620.192 609.001 612.512 605.087C611.783 605.025 611.601 605.17 610.845 605.356Z" fill="#C2C3C4"/>
<path d="M602.664 604.523C604.491 605.897 604.93 607.577 606.591 608.266C608.261 607.873 609.506 606.518 610.843 605.358C611.599 605.171 611.781 605.026 612.51 605.088C611.391 607.137 611.066 610.447 609.646 612.853C605.822 610.652 604.252 608.485 602.664 604.523Z" fill="#C2C3C4"/>
<path d="M844.291 514.024C850.482 513.437 867.115 513.566 873.456 514.003C878.245 517.617 882.297 521.889 886.331 526.316C888.233 529.835 885.473 550.059 884.903 554.981C868.716 557.231 857.474 558.799 841.105 558.962C839.175 549.981 837.547 532.21 839.777 523.318C840.699 518.593 841.39 517.648 844.291 514.024Z" fill="#C2C3C4"/>
<path d="M844.291 514.023C850.482 513.436 867.115 513.565 873.456 514.002C878.245 517.616 882.297 521.887 886.331 526.314C881.531 528.065 869.625 525.669 864.076 524.985C856.011 523.993 847.899 523.432 839.777 523.316C840.699 518.591 841.39 517.647 844.291 514.023Z" fill="#FDFDFD"/>
<path d="M699.024 689.118C714.152 694.256 730.351 675.931 744.38 687.239C760.675 703.125 720.748 737.821 753.589 739.439C760.344 739.77 770.095 735.991 776.467 733.585C768.42 747.494 754.082 758.574 737.186 752.876C726.33 749.396 722.497 740.381 723.849 729.429C724.98 720.272 730.594 711.822 730.984 702.703C731.066 700.713 730.265 699.726 728.862 698.439C729.014 696.924 729.009 697.457 728.651 695.928C727.301 694.091 725.663 693.585 723.561 692.571C717.691 693.532 699.822 698.022 699.024 689.118Z" fill="#B5B5B7"/>
<path d="M699.024 689.118C714.152 694.256 730.351 675.931 744.38 687.239C738.448 700.484 724.779 726.768 729.418 741.752C730.689 745.853 737.175 750.552 737.484 752.359L737.186 752.876C726.33 749.396 722.497 740.381 723.849 729.429C724.98 720.272 730.594 711.822 730.984 702.703C731.066 700.713 730.265 699.726 728.862 698.439C729.014 696.924 729.009 697.457 728.651 695.928C727.301 694.091 725.663 693.585 723.561 692.571C717.691 693.532 699.822 698.022 699.024 689.118Z" fill="#FDFDFD"/>
<path d="M663.807 648.05C662.239 646.999 660.579 646.06 658.948 645.099L658.918 644.159L658.363 644.226C659.532 643.944 660.608 643.642 661.762 643.318L662.538 643.172C675.376 640.68 691.45 631.782 703.076 641.77C716.338 657.599 689.33 675.769 699.024 689.118C699.821 698.022 717.69 693.532 723.561 692.571C725.663 693.585 727.3 694.091 728.651 695.928C729.009 697.457 729.014 696.924 728.862 698.439C719.219 698.158 702.734 711.353 691.581 706.141C688.7 705.205 685.905 703.712 683.849 701.449C670.713 687.004 688.931 668.267 688.721 653.87C691.698 642.266 670.84 648.165 664.652 648.066L663.807 648.05Z" fill="#AAAAAC"/>
<path d="M663.807 648.05C662.239 646.999 660.579 646.06 658.948 645.099L658.918 644.159L658.363 644.226C659.532 643.944 660.608 643.642 661.762 643.318L662.538 643.172C675.376 640.68 691.45 631.782 703.076 641.77C698.389 648.395 688.633 673.533 685.741 682.312C684.68 685.525 684.694 689.957 684.946 693.218C685.44 699.475 690.439 703.39 691.581 706.141C688.7 705.205 685.905 703.712 683.849 701.449C670.713 687.004 688.931 668.267 688.721 653.87C691.698 642.266 670.84 648.165 664.652 648.066L663.807 648.05Z" fill="#FDFDFD"/>
<path d="M178.586 877.986C174.127 870.911 171.606 862.785 171.275 854.425C170.49 837.642 181.054 813.404 200.751 807.529C201.314 807.364 201.709 807.992 202.135 808.413C202.238 810.023 202.337 809.207 201.189 810.857C198.37 815.668 193.616 820.048 190.155 824.522C176.303 842.424 175.259 869.581 196.246 882.538L196.984 882.985C213.963 889.839 228.793 876.091 233.484 860.608C236.78 849.728 235.11 839.384 229.696 829.524C230.942 827.589 231.565 826.382 233.317 824.833C238.288 832.074 242.154 840.684 242.67 849.562C244.308 870.268 230.626 892.247 208.736 893.905C200.309 894.568 191.963 891.866 185.526 886.389C184.708 885.689 183.589 884.71 182.959 883.847C180.949 881.547 180.197 880.696 178.586 877.986Z" fill="#B5B5B7"/>
<path d="M229.698 829.524C230.943 827.589 231.567 826.382 233.319 824.834C238.29 832.074 242.156 840.684 242.672 849.563C241.843 848.378 240.715 847.301 239.704 846.251C240.828 857.716 238.688 865.689 231.205 875.039C223.945 884.107 209.283 893.056 197.642 886.107C196.679 885.534 196.806 884.67 196.588 883.58L196.986 882.985C213.964 889.839 228.794 876.091 233.485 860.609C236.782 849.729 235.112 839.384 229.698 829.524Z" fill="#FDFDFD"/>
<path d="M233.319 824.833C238.29 832.073 242.157 840.683 242.672 849.562C241.843 848.377 240.716 847.3 239.704 846.25C238.181 840.56 235.248 830.297 233.319 824.833Z" fill="#CED0D1"/>
<path d="M178.586 877.986C174.127 870.911 171.606 862.785 171.275 854.425C170.49 837.642 181.054 813.404 200.751 807.529C201.314 807.364 201.709 807.992 202.135 808.413C202.238 810.023 202.337 809.207 201.189 810.857C193.941 813.253 185.249 824.042 181.714 830.88C177.413 839.193 174.927 855.095 176.74 863.948C177.402 869.826 180.181 872.254 178.586 877.986Z" fill="#F6F5F5"/>
<path d="M176.742 863.948C178.423 868.795 183.572 879.707 182.961 883.847C180.95 881.546 180.199 880.695 178.587 877.985C180.183 872.254 177.403 869.825 176.742 863.948Z" fill="#C2C3C4"/>
<path d="M211.031 834.194C210.364 833.865 209.723 833.479 209.117 833.048C196.632 824.124 221.864 790.456 233.347 789.848C237.154 789.645 239.983 792.172 242.464 794.288C252.176 804.841 227.891 812.72 222.98 821.289C219.424 827.497 219.086 837.336 211.031 834.194Z" fill="#9E9FA3"/>
<path d="M211.031 834.194C210.364 833.865 209.723 833.479 209.117 833.048C196.632 824.124 221.864 790.456 233.347 789.848C237.154 789.645 239.983 792.172 242.464 794.288C237.437 795.233 234.654 796.657 230.18 799.147C226.447 802.065 222.788 805.08 219.202 808.18C213.071 815.312 208.734 823.453 210.944 833.088C211.081 833.687 211.046 833.561 211.031 834.194Z" fill="#FDFDFD"/>
<path d="M219.206 808.179C219.958 802.665 225.273 800.267 230.183 799.146C226.451 802.065 222.791 805.079 219.206 808.179Z" fill="#C2C3C4"/>
<path fill-rule="evenodd" clip-rule="evenodd" d="M598.032 389.712C591.685 383.365 581.393 383.365 575.045 389.712L514.998 449.76C513.055 451.703 509.904 451.703 507.961 449.76C506.018 447.816 506.018 444.666 507.961 442.723L568.009 382.676C578.243 372.442 594.835 372.441 605.069 382.676C611.244 388.851 613.693 397.341 612.416 405.353C620.428 404.077 628.919 406.528 635.094 412.703L635.406 413.015C645.64 423.249 645.64 439.842 635.406 450.076L581.099 504.383C580.278 505.204 580.278 506.534 581.098 507.354L592.25 518.506C594.193 520.449 594.193 523.6 592.25 525.543C590.306 527.486 587.156 527.486 585.213 525.543L574.062 514.391C569.355 509.684 569.355 502.053 574.062 497.347L628.369 443.039C634.717 436.691 634.717 426.4 628.369 420.052L628.057 419.739C621.708 413.391 611.416 413.389 605.069 419.736L560.347 464.462C560.307 464.502 560.267 464.541 560.226 464.579L559.721 465.084C557.778 467.027 554.627 467.027 552.684 465.084C550.741 463.141 550.741 459.991 552.684 458.047L598.032 412.699C604.38 406.352 604.38 396.06 598.032 389.712ZM590.058 397.689C592.001 399.633 592.001 402.783 590.058 404.726L545.647 449.136C539.3 455.484 539.3 465.775 545.647 472.123C551.995 478.47 562.287 478.47 568.634 472.123L613.044 427.713C614.988 425.77 618.138 425.77 620.081 427.713C622.024 429.656 622.024 432.807 620.081 434.75L575.671 479.16C565.437 489.393 548.845 489.393 538.611 479.16C528.377 468.926 528.377 452.333 538.611 442.099L583.021 397.689C584.964 395.746 588.114 395.746 590.058 397.689Z" fill="#FDFDFD"/>
</g>
<defs>
<linearGradient id="knifeRainbow" x1="240" y1="820" x2="730" y2="370" gradientUnits="userSpaceOnUse">
<stop offset="0" stop-color="#CA8473"/>
<stop offset="0.1666" stop-color="#CAC573"/>
<stop offset="0.3333" stop-color="#8DCA73"/>
<stop offset="0.5" stop-color="#73CA9A"/>
<stop offset="0.6666" stop-color="#73B8CA"/>
<stop offset="0.8333" stop-color="#7773CA"/>
<stop offset="1" stop-color="#AF73CA"/>
</linearGradient>
<linearGradient id="knifeRainbowDark" x1="240" y1="820" x2="730" y2="370" gradientUnits="userSpaceOnUse">
<stop offset="0" stop-color="#814131"/>
<stop offset="0.1666" stop-color="#817D31"/>
<stop offset="0.3333" stop-color="#498131"/>
<stop offset="0.5" stop-color="#318155"/>
<stop offset="0.6666" stop-color="#317181"/>
<stop offset="0.8333" stop-color="#353181"/>
<stop offset="1" stop-color="#693181"/>
</linearGradient>
<clipPath id="clip0_2459_19421">
<rect width="1024" height="1024" fill="white"/>
</clipPath>
</defs>
</svg>
