<?xml version="1.0" encoding="UTF-8"?>
<svg xmlns="http://www.w3.org/2000/svg" viewBox="0 0 512 512" width="512" height="512" role="img" aria-label="mcpc logo">
  <title>mcpc</title>

  <defs>
    <linearGradient id="handleGradient" x1="0" y1="0" x2="0" y2="1">
      <stop offset="0%" stop-color="#e63946"/>
      <stop offset="100%" stop-color="#a4161a"/>
    </linearGradient>
    <linearGradient id="bladeGradient" x1="0" y1="0" x2="0" y2="1">
      <stop offset="0%" stop-color="#f1f5f9"/>
      <stop offset="50%" stop-color="#cbd5e1"/>
      <stop offset="100%" stop-color="#94a3b8"/>
    </linearGradient>
  </defs>

  <!-- Knife blade (pointing up-right) -->
  <g transform="translate(256,256) rotate(-35)">
    <path d="M -20 -10 L 220 -18 L 240 0 L 220 18 L -20 10 Z"
          fill="url(#bladeGradient)"
          stroke="#475569"
          stroke-width="3"
          stroke-linejoin="round"/>
    <path d="M -20 -10 L 220 -18 L 240 0"
          fill="none"
          stroke="#f8fafc"
          stroke-width="1.5"
          opacity="0.6"/>
    <!-- Pivot pin -->
    <circle cx="-20" cy="0" r="7" fill="#64748b" stroke="#334155" stroke-width="2"/>
  </g>

  <!-- Handle (red body) -->
  <g>
    <rect x="56" y="196" width="320" height="120" rx="36" ry="36"
          fill="url(#handleGradient)"
          stroke="#6a040f"
          stroke-width="4"/>

    <!-- Subtle inner highlight -->
    <rect x="66" y="206" width="300" height="14" rx="7" ry="7"
          fill="#ffffff" opacity="0.18"/>

    <!-- Rivets -->
    <circle cx="96" cy="256" r="6" fill="#e2e8f0" stroke="#475569" stroke-width="1.5"/>
    <circle cx="336" cy="256" r="6" fill="#e2e8f0" stroke="#475569" stroke-width="1.5"/>

    <!-- MCP hexagon emblem centered on the handle -->
    <g transform="translate(216,256)">
      <polygon points="0,-46 40,-23 40,23 0,46 -40,23 -40,-23"
               fill="#ffffff"
               stroke="#6a040f"
               stroke-width="3"/>
      <!-- Stylized MCP mark: three linked nodes -->
      <g stroke="#a4161a" stroke-width="4" fill="#a4161a" stroke-linecap="round">
        <line x1="-18" y1="10" x2="0" y2="-16"/>
        <line x1="0" y1="-16" x2="18" y2="10"/>
        <line x1="-18" y1="10" x2="18" y2="10"/>
        <circle cx="-18" cy="10" r="6" fill="#ffffff"/>
        <circle cx="0" cy="-16" r="6" fill="#ffffff"/>
        <circle cx="18" cy="10" r="6" fill="#ffffff"/>
      </g>
    </g>

    <!-- "mcpc" wordmark on the right portion of the handle -->
    <text x="300" y="268"
          font-family="ui-monospace, SFMono-Regular, Menlo, Consolas, monospace"
          font-size="34"
          font-weight="700"
          fill="#ffffff"
          text-anchor="middle"
          letter-spacing="2">mcpc</text>
  </g>
</svg>
